<svg width="5em" height="5em " xmlns="http://www.w3.org/2000/svg" viewBox="0 0 250 250">
<g transform="matrix(10.416666666666666,0,0,10.416666666666666,0,0)"><g>
<path d="M12.1,15.08a3.23,3.23,0,0,0-.49-.41,4.75,4.75,0,0,0-1.17-.55,2.85,2.85,0,0,0,1-1.42A2.54,2.54,0,0,0,9.5,9.45a2.31,2.31,0,0,0-1.84.27,3,3,0,0,0-1.14,1.35,2.13,2.13,0,0,0,1,3,3.58,3.58,0,0,0-1.3.72,2.52,2.52,0,0,0-.45.57,2.93,2.93,0,0,0-.29.65,4.92,4.92,0,0,0-.19,1.6.3.3,0,0,0,.27.32.3.3,0,0,0,.33-.27,5.27,5.27,0,0,1,.47-1.3c.08-.16.18-.32.28-.48s.19-.3.3-.45a3.51,3.51,0,0,1,1-.93A.26.26,0,0,0,8,14.13.25.25,0,0,0,7.86,14l0,0a.26.26,0,0,0-.12-.35,1.51,1.51,0,0,1-.52-2.18,2.23,2.23,0,0,1,.88-.87,1.42,1.42,0,0,1,1.09-.14,1.66,1.66,0,0,1,1.32,2.06,2,2,0,0,1-2.17,1.59.3.3,0,0,0-.34.26.29.29,0,0,0,.26.33A2.65,2.65,0,0,0,10,14.43a.2.2,0,0,0,.08.1,9.19,9.19,0,0,1,1.14,1.06,6.38,6.38,0,0,1,.68.7,2.31,2.31,0,0,1,.48.88.3.3,0,0,0,.6-.05,2.67,2.67,0,0,0-.43-1.51A3,3,0,0,0,12.1,15.08Z" style="fill: #0ef0b8;fill-rule: evenodd"></path>
<path d="M16.31,9.31a3.29,3.29,0,0,1,.37.91,2.18,2.18,0,0,1,0,.93.29.29,0,0,0,.21.37.3.3,0,0,0,.37-.21,2.77,2.77,0,0,0,0-1.22A4.07,4.07,0,0,0,16.88,9a3.61,3.61,0,0,0-2.57-1.65l-.48-.09A.28.28,0,0,0,14.08,7a8.71,8.71,0,0,0,.13-2.88A5.16,5.16,0,0,0,13,1.44,3.93,3.93,0,0,0,8,.5a6.43,6.43,0,0,0-3.08,4,8.66,8.66,0,0,0-.18,1.69,8.93,8.93,0,0,0,.07,1,6.47,6.47,0,0,0-1.61.17A3,3,0,0,0,1.43,8.61,2.77,2.77,0,0,0,1,9.83C.87,10.4.88,11,.84,11.51.75,12.82.17,15.79.62,17.85a2.91,2.91,0,0,0,1.82,2.36A17.45,17.45,0,0,0,6,20.76c1.91.13,4,.13,5.3.12a.27.27,0,1,0,0-.53c-1.32,0-3.36-.09-5.25-.28a16.18,16.18,0,0,1-3.37-.64C1.76,19.1,1.49,18,1.41,16.84a33.41,33.41,0,0,1,.44-5.26c0-.47,0-1.05.11-1.58a2,2,0,0,1,.29-.81A2.41,2.41,0,0,1,4,8.27c1.2-.16,2.58.06,3.62,0a34.57,34.57,0,0,1,5.64-.33C14.58,8,15.77,8.37,16.31,9.31Zm-8.75-2c-.64,0-1.4,0-2.18-.08a6,6,0,0,1,0-1A7.23,7.23,0,0,1,5.65,4.7,5.73,5.73,0,0,1,8.46,1.4a3.06,3.06,0,0,1,3.83.67,4.14,4.14,0,0,1,1.18,2.21,7.86,7.86,0,0,1,0,2.65.3.3,0,0,0,.17.3A32,32,0,0,0,7.56,7.35Z" style="fill: #ffffff;fill-rule: evenodd"></path>
<path d="M23.43,16.33a3,3,0,0,0-.72-.76c-.74-.59-1.92-1.21-3-2a.37.37,0,0,0-.29-.07c-1,.21-1.7.5-2.44.61a3.72,3.72,0,0,1-1,0,.3.3,0,0,0-.07.59,4.11,4.11,0,0,0,1.16,0c.72-.08,1.36-.32,2.33-.5.83.66,1.74,1.22,2.42,1.73a3.2,3.2,0,0,1,.81.78s-.08.34-.1.46L22.1,19a5.51,5.51,0,0,1-1.17,2.3,5.14,5.14,0,0,1-.41.4.29.29,0,0,0,0-.31c-.56-.69-1.08-1.42-1.57-2.16-.21-.31-.42-.63-.62-1s-.41-.63-.61-.95A16.88,16.88,0,0,1,16.4,15a.27.27,0,0,0-.34-.16.26.26,0,0,0-.16.34,13.32,13.32,0,0,0,.94,2.61,10.77,10.77,0,0,0,.6,1c.22.33.45.65.7,1a22.45,22.45,0,0,0,1.9,2,.27.27,0,0,0,.24.08,5.86,5.86,0,0,1-1.51.83,6.28,6.28,0,0,1-1.1.33,1,1,0,0,1-.56,0,3.25,3.25,0,0,1-.63-.35,8.05,8.05,0,0,1-.89-.73,3,3,0,0,1-.47-.55,4.34,4.34,0,0,1-.38-.66,2.74,2.74,0,0,1-.28-1,4.9,4.9,0,0,1,.07-1.13c.07-.48.18-1,.3-1.44.2-.72.43-1.44.65-2.14a.26.26,0,0,0-.16-.34.27.27,0,0,0-.34.17c-.25.7-.52,1.42-.74,2.14a13.06,13.06,0,0,0-.39,1.49,5.91,5.91,0,0,0-.14,1.29A3.49,3.49,0,0,0,14,21a5.33,5.33,0,0,0,.4.79,3.92,3.92,0,0,0,.57.72,10.09,10.09,0,0,0,1,.86,4.37,4.37,0,0,0,.78.47,2,2,0,0,0,1.09.11,6.47,6.47,0,0,0,1.31-.36,6.41,6.41,0,0,0,2.56-1.67,6.58,6.58,0,0,0,1.37-2.73l.39-1.81a3.33,3.33,0,0,0,.11-.61A.88.88,0,0,0,23.43,16.33Z" style="fill: #ffffff;fill-rule: evenodd"></path>
</g></g></svg>