<svg xmlns="http://www.w3.org/2000/svg" viewBox="0 0 30 30" height="30" width="30">
<g transform="matrix(1.25,0,0,1.25,0,0)"><path d="M24,12a3.5,3.5,0,0,0-2.22-3.24.32.32,0,0,1-.14-.14.25.25,0,0,1,0-.19,4.24,4.24,0,0,0-3.43-5.9A.27.27,0,0,1,18,2.29a2.5,2.5,0,0,0-4.78-.81.23.23,0,0,1-.29.14,3.59,3.59,0,0,0-1.84,0,.23.23,0,0,1-.29-.14A2.5,2.5,0,0,0,6,2.29a.27.27,0,0,1-.23.24,4.24,4.24,0,0,0-3.43,5.9.25.25,0,0,1,0,.19.32.32,0,0,1-.14.14,3.47,3.47,0,0,0,0,6.48.32.32,0,0,1,.14.14.25.25,0,0,1,0,.19,4.24,4.24,0,0,0,3.43,5.9.27.27,0,0,1,.23.24,2.5,2.5,0,0,0,4.56,1.19.25.25,0,0,1,.29-.09,3.56,3.56,0,0,0,2.28,0,.25.25,0,0,1,.29.09A2.5,2.5,0,0,0,18,21.71a.26.26,0,0,1,.23-.24,4.24,4.24,0,0,0,3.43-5.9.25.25,0,0,1,0-.19.32.32,0,0,1,.14-.14A3.5,3.5,0,0,0,24,12Zm-6,5H15a1.67,1.67,0,1,1-1.49-2.42A1.67,1.67,0,0,1,15,15.5h3A.75.75,0,0,1,18,17ZM10.25,9a1.66,1.66,0,0,1-1.42-.8.27.27,0,0,0-.21-.12H5.75a.75.75,0,1,1,0-1.5H8.62a.26.26,0,0,0,.21-.11A1.67,1.67,0,1,1,10.25,9ZM9,17.5a.75.75,0,0,1-1.5,0V14.88a.27.27,0,0,0-.12-.21,1.67,1.67,0,1,1,1.74,0,.27.27,0,0,0-.12.21ZM17.42,7.25a1.66,1.66,0,0,1-.8,1.42.27.27,0,0,0-.12.21V12A.75.75,0,0,1,15,12V8.88a.27.27,0,0,0-.12-.21,1.67,1.67,0,1,1,2.54-1.42Z" style="fill: currentColor"></path></g></svg>